<?xml version="1.0" encoding="UTF-8" standalone="no"?>
<!-- Created with Inkscape (http://www.inkscape.org/) -->

<svg
   width="240mm"
   height="71mm"
   viewBox="0 0 240 71"
   version="1.1"
   id="svg1"
   inkscape:version="1.3.2 (1:1.3.2+202311252150+091e20ef0f)"
   sodipodi:docname="AppRock-8.svg"
   xml:space="preserve"
   xmlns:inkscape="http://www.inkscape.org/namespaces/inkscape"
   xmlns:sodipodi="http://sodipodi.sourceforge.net/DTD/sodipodi-0.dtd"
   xmlns="http://www.w3.org/2000/svg"
   xmlns:svg="http://www.w3.org/2000/svg"><sodipodi:namedview
     id="namedview1"
     pagecolor="#ffffff"
     bordercolor="#111111"
     borderopacity="1"
     inkscape:showpageshadow="0"
     inkscape:pageopacity="0"
     inkscape:pagecheckerboard="1"
     inkscape:deskcolor="#d1d1d1"
     inkscape:document-units="mm"
     inkscape:zoom="4.7607184"
     inkscape:cx="58.919679"
     inkscape:cy="126.97663"
     inkscape:window-width="2818"
     inkscape:window-height="1809"
     inkscape:window-x="295"
     inkscape:window-y="252"
     inkscape:window-maximized="0"
     inkscape:current-layer="layer1" /><defs
     id="defs1"><inkscape:path-effect
       effect="offset"
       id="path-effect34"
       is_visible="true"
       lpeversion="1.2"
       linejoin_type="miter"
       unit="mm"
       offset="0.5"
       miter_limit="4"
       attempt_force_join="false"
       update_on_knot_move="true" /><inkscape:path-effect
       effect="offset"
       id="path-effect32"
       is_visible="true"
       lpeversion="1.2"
       linejoin_type="miter"
       unit="mm"
       offset="0"
       miter_limit="4"
       attempt_force_join="false"
       update_on_knot_move="true" /><inkscape:path-effect
       effect="offset"
       id="path-effect31"
       is_visible="true"
       lpeversion="1.2"
       linejoin_type="miter"
       unit="mm"
       offset="0.5"
       miter_limit="4"
       attempt_force_join="false"
       update_on_knot_move="true" /><inkscape:path-effect
       effect="offset"
       id="path-effect30"
       is_visible="true"
       lpeversion="1.2"
       linejoin_type="miter"
       unit="mm"
       offset="0"
       miter_limit="4"
       attempt_force_join="false"
       update_on_knot_move="true" /><inkscape:path-effect
       effect="offset"
       id="path-effect29"
       is_visible="true"
       lpeversion="1.2"
       linejoin_type="miter"
       unit="mm"
       offset="0.5"
       miter_limit="4"
       attempt_force_join="false"
       update_on_knot_move="true" /><inkscape:path-effect
       effect="offset"
       id="path-effect28"
       is_visible="true"
       lpeversion="1.2"
       linejoin_type="miter"
       unit="mm"
       offset="0.5"
       miter_limit="4"
       attempt_force_join="false"
       update_on_knot_move="true" /><clipPath
       clipPathUnits="userSpaceOnUse"
       id="clipPath7"><rect
         style="fill:none;stroke:#44141e;stroke-width:1.202;stroke-opacity:0"
         id="rect8"
         width="13.886673"
         height="18.639503"
         x="87.08139"
         y="113.97767"
         ry="0.056231026" /></clipPath><clipPath
       clipPathUnits="userSpaceOnUse"
       id="clipPath13"><path
         style="fill:none;stroke:#44141e;stroke-width:1.202;stroke-opacity:0"
         d="m 94.605189,122.78146 0.439661,0.22466 0.476774,0.32982 0.436081,0.358 -0.546497,0.6282 -0.634852,0.17811 -0.490355,-0.26649 -0.155342,-0.57114 0.137594,-0.40559 z"
         id="path13" /></clipPath><clipPath
       clipPathUnits="userSpaceOnUse"
       id="clipPath14"><path
         style="fill:none;stroke:#44141e;stroke-width:1.202;stroke-opacity:0"
         d="m 94.605189,122.78146 0.439661,0.22466 0.476774,0.32982 0.436081,0.358 -0.546497,0.6282 -0.634852,0.17811 -0.490355,-0.26649 -0.155342,-0.57114 0.137594,-0.40559 z"
         id="path14" /></clipPath><clipPath
       clipPathUnits="userSpaceOnUse"
       id="clipPath15"><path
         style="fill:none;stroke:#44141e;stroke-width:1.202;stroke-opacity:0"
         d="m 94.605189,122.78146 0.439661,0.22466 0.476774,0.32982 0.436081,0.358 -0.546497,0.6282 -0.634852,0.17811 -0.490355,-0.26649 -0.155342,-0.57114 0.137594,-0.40559 z"
         id="path15" /></clipPath><clipPath
       clipPathUnits="userSpaceOnUse"
       id="clipPath16"><path
         style="fill:none;stroke:#44141e;stroke-width:1.202;stroke-opacity:0"
         d="m 94.605189,122.78146 0.439661,0.22466 0.476774,0.32982 0.436081,0.358 -0.546497,0.6282 -0.634852,0.17811 -0.490355,-0.26649 -0.155342,-0.57114 0.137594,-0.40559 z"
         id="path16" /></clipPath><clipPath
       clipPathUnits="userSpaceOnUse"
       id="clipPath17"><path
         style="fill:none;stroke:#44141e;stroke-width:1.202;stroke-opacity:0"
         d="m 94.605189,122.78146 0.439661,0.22466 0.476774,0.32982 0.436081,0.358 -0.546497,0.6282 -0.634852,0.17811 -0.490355,-0.26649 -0.155342,-0.57114 0.137594,-0.40559 z"
         id="path17" /></clipPath><clipPath
       clipPathUnits="userSpaceOnUse"
       id="clipPath18"><path
         style="fill:none;stroke:#44141e;stroke-width:1.202;stroke-opacity:0"
         d="m 94.605189,122.78146 0.439661,0.22466 0.476774,0.32982 0.436081,0.358 -0.546497,0.6282 -0.634852,0.17811 -0.490355,-0.26649 -0.155342,-0.57114 0.137594,-0.40559 z"
         id="path18" /></clipPath><clipPath
       clipPathUnits="userSpaceOnUse"
       id="clipPath19"><path
         style="fill:none;stroke:#44141e;stroke-width:1.202;stroke-opacity:0"
         d="m 94.605189,122.78146 0.439661,0.22466 0.476774,0.32982 0.436081,0.358 -0.546497,0.6282 -0.634852,0.17811 -0.490355,-0.26649 -0.155342,-0.57114 0.137594,-0.40559 z"
         id="path19" /></clipPath><clipPath
       clipPathUnits="userSpaceOnUse"
       id="clipPath20"><path
         style="fill:none;stroke:#44141e;stroke-width:1.202;stroke-opacity:0"
         d="m 94.605189,122.78146 0.439661,0.22466 0.476774,0.32982 0.436081,0.358 -0.546497,0.6282 -0.634852,0.17811 -0.490355,-0.26649 -0.155342,-0.57114 0.137594,-0.40559 z"
         id="path20" /></clipPath><clipPath
       clipPathUnits="userSpaceOnUse"
       id="clipPath21"><path
         id="path21"
         style="fill:#ff2a2a;stroke:#44141e;stroke-width:3.82622;stroke-opacity:0"
         d="m 87.691804,114.53771 c -0.174019,0 -0.314193,0.14018 -0.314193,0.31419 v 17.55139 c 0,0.17402 0.140174,0.31419 0.314193,0.31419 h 13.419336 c 0.17402,0 0.31368,-0.14017 0.31368,-0.31419 V 114.8519 c 0,-0.17401 -0.13966,-0.31419 -0.31368,-0.31419 z m 6.337599,8.18917 2.015382,0.0832 -0.274403,1.8402 -1.61644,-0.29714 z" /></clipPath><clipPath
       clipPathUnits="userSpaceOnUse"
       id="clipPath22"><path
         id="path22"
         style="fill:#ff0000;stroke:#44141e;stroke-width:4.28112;stroke-opacity:0"
         d="m 98.925969,112.24199 c 1.068512,0 1.929081,0.86006 1.929081,1.92858 V 131.585 c 0,1.06852 -0.860569,1.92857 -1.929081,1.92857 H 89.69191 c -1.06852,0 -1.928569,-0.86005 -1.928569,-1.92857 v -17.41443 c 0,-1.06852 0.860049,-1.92858 1.928569,-1.92858 z m -4.272089,10.1508 -0.995289,1.00305 0.691949,1.44798 1.911509,-0.43564 -0.08889,-1.56941 z" /></clipPath></defs><g
     inkscape:label="Layer 1"
     inkscape:groupmode="layer"
     id="layer1"><path
       style="fill:#ffffff;stroke-width:0.697691"
       d="M 20.58328,70.372472 C 15.907171,69.493569 11.239747,67.110396 7.5290437,63.706991 3.28902,59.81809 1.6163621,56.973048 1.8653473,54.073512 2.1790571,50.420176 8.167145,40.030226 15.906347,29.710983 c 2.261723,-3.015727 2.415286,-3.135125 3.391629,-2.637035 1.735041,0.885169 1.685215,1.210489 -1.183962,7.729287 l -1.400411,3.18177 0.808944,1.029094 c 0.444924,0.565991 0.882962,1.134914 0.973417,1.264298 0.106693,0.152587 -0.168883,1.151714 -0.784539,2.844367 -0.521955,1.435034 -0.949005,2.832235 -0.949005,3.104896 0,0.492673 0.0027,0.493559 0.392025,0.144062 0.43836,-0.393207 4.202569,-5.344891 4.34471,-5.715295 0.05005,-0.130171 -0.413852,-0.871976 -1.030755,-1.648281 -0.61689,-0.776293 -1.121621,-1.427033 -1.121621,-1.44608 0,-0.775556 2.922914,-8.432475 3.269778,-8.565579 0.321313,-0.123318 3.929514,0.323361 3.929514,0.486433 0,0.07002 -0.292868,1.32014 -0.65084,2.777965 l -0.650828,2.65059 1.4067,1.826519 1.406688,1.826531 -0.663559,1.544622 c -0.949424,2.21004 -0.881375,2.394917 0.472703,1.284243 1.093013,-0.89654 2.355351,-2.325358 2.363988,-2.675753 0.0037,-0.158242 -0.574378,-1.102786 -1.285079,-2.098992 -0.770838,-1.080469 -1.292182,-1.997142 -1.292182,-2.271962 0,-0.876681 1.170112,-5.255448 1.559275,-5.835143 0.431302,-0.642427 1.992761,-1.586223 2.635501,-1.592975 0.497266,-0.005 0.868855,0.506403 6.231296,8.579458 4.488006,6.756584 6.049802,9.312851 7.842121,12.835468 1.49854,2.945206 2.37959,5.094012 2.522754,6.152813 0.362266,2.678948 -4.130545,8.58153 -9.126089,11.989715 -2.407624,1.642578 -5.761315,3.009786 -9.172796,3.73946 -2.040178,0.436369 -7.591151,0.527497 -9.562444,0.156993 z"
       id="path1" /><path
       id="path3"
       clip-path="url(#clipPath21)"
       style="fill:#ffffff;stroke-width:0.497342"
       d="m 102.70013,107.22638 -0.0845,2.49994 c -0.23195,6.86699 -0.35797,10.5141 -0.43794,12.61894 0.51038,0.15654 0.98795,0.44638 1.37859,0.8233 0.0242,-0.13573 0.0367,-0.21022 0.0615,-0.34922 0.0968,-0.54279 0.24029,-1.3719 0.31919,-1.84233 0.0789,-0.47042 0.23043,-1.32906 0.33655,-1.90805 0.10611,-0.579 0.31477,-1.73337 0.46375,-2.56566 0.14899,-0.83229 0.32392,-1.69093 0.38912,-1.90805 0.0652,-0.21712 0.15684,-0.66143 0.20324,-0.98712 0.0464,-0.32567 0.14308,-0.7453 0.21498,-0.93266 0.1151,-0.2999 0.0119,-0.54198 -0.8632,-2.02024 -0.54676,-0.92365 -0.99416,-1.69952 -0.99416,-1.72452 0,-0.025 -0.22239,-0.41871 -0.49379,-0.87493 z m -7.223366,7.6275 c -0.1943,-0.009 -0.393017,0.43532 -0.869301,1.32038 -0.311574,0.57898 -0.646455,1.16964 -0.743975,1.3124 -0.266549,0.39019 -0.224178,0.54362 0.346406,1.26546 0.981611,1.24184 1.995672,3.0013 2.76186,4.79101 0.15492,0.36187 0.335116,0.77619 0.399916,0.92094 0.18798,0.41986 1.125737,2.71912 1.315217,3.2242 0.09502,0.25331 0.275016,0.69717 0.399446,0.98665 0.12444,0.28951 0.431605,1.05956 0.682955,1.7109 0.251352,0.65137 0.504592,1.30237 0.562792,1.44712 0.10048,0.24984 0.10919,0.25089 0.16429,0.0174 0.0319,-0.13533 -0.004,-0.49061 -0.0803,-0.78951 -0.076,-0.29892 -0.17416,-0.89881 -0.21826,-1.33305 -0.0535,-0.52788 -0.16524,-1.19839 -0.378797,-2.37462 -0.429883,-0.20158 -0.810935,-0.47867 -1.110095,-0.81626 -0.18815,-0.21234 -0.28717,-0.3313 -0.3511,-0.53745 -0.07931,-0.25573 -0.08465,-0.67487 -0.04084,-1.23823 0.06363,-0.81792 0.167656,-1.11496 0.662302,-1.57103 -0.271406,-1.11576 -0.552099,-2.0839 -0.765566,-2.56191 -0.10188,-0.22805 -0.184938,-0.46925 -0.184938,-0.53603 0,-0.19294 -0.83395,-2.06625 -1.7095,-3.83957 -0.458171,-0.92798 -0.648247,-1.38985 -0.842545,-1.39877 z m 12.484696,1.51799 c -0.0178,0 -0.24988,0.51814 -0.51585,1.1514 -0.26595,0.63328 -0.5378,1.26951 -0.6041,1.41426 -0.11476,0.25037 -0.19868,0.48433 -0.77636,2.17137 -1.12499,3.28536 -1.83991,6.94299 -2.15448,11.02022 -0.0293,0.37996 -0.0179,0.68702 0.0258,0.68202 0.0436,-0.005 0.39988,-0.67116 0.79138,-1.48044 1.46347,-3.02513 2.85791,-4.96242 5.71523,-7.93965 l 1.03218,-1.07536 -0.36378,-0.63602 c -0.20012,-0.35004 -0.41695,-0.70679 -0.48205,-0.79279 -0.0822,-0.10862 -0.64928,0.45331 -1.85736,1.84187 -0.95634,1.09922 -1.86522,2.16378 -2.01976,2.36523 -0.15454,0.20147 -0.31645,0.30919 -0.35955,0.23939 -0.0431,-0.0698 -0.0182,-0.16442 0.0554,-0.20982 0.0735,-0.0454 0.13426,-0.18272 0.13471,-0.3051 4.5e-4,-0.12238 0.089,-0.3921 0.19714,-0.5994 0.10814,-0.20731 0.19937,-0.44398 0.20137,-0.52618 0.002,-0.0822 0.11879,-0.38643 0.25863,-0.67592 0.13984,-0.2895 0.25663,-0.57406 0.25863,-0.63226 0.006,-0.14124 0.4329,-1.08326 1.13779,-2.51074 0.31756,-0.6431 0.57734,-1.22191 0.57734,-1.28611 0,-0.11389 -1.18792,-2.21597 -1.25232,-2.21597 z m -13.31363,6.53665 c -0.03259,0.0116 -0.04037,0.0628 -0.04037,0.14833 0,0.14116 -0.08776,0.32942 -0.194795,0.41822 -0.153521,0.1274 -0.163152,0.22092 -0.046,0.44357 0.08169,0.15524 0.213726,0.32616 0.293366,0.37926 0.25906,0.17299 0.46222,0.10708 0.899341,-0.29055 0.278642,-0.25349 0.359408,-0.39275 0.22953,-0.39475 -0.11017,-0.002 -0.421136,-0.18549 -0.690935,-0.40789 -0.272432,-0.22457 -0.395819,-0.31546 -0.45014,-0.29619 z m -4.176117,0.49239 c -0.03114,0.002 -0.05536,0.0113 -0.07182,0.0291 -0.05779,0.0624 -0.32816,0.52792 -0.600813,1.03452 -0.272649,0.50662 -0.604727,1.07805 -0.738342,1.27016 -0.133615,0.19211 -0.243141,0.40349 -0.243141,0.46939 0,0.0659 0.384231,0.25526 0.853811,0.42103 1.206008,0.42577 2.84117,1.45686 4.405646,2.72525 0.104729,-0.0996 0.213015,-0.18993 0.321059,-0.26426 0.359053,-0.24703 0.775998,-0.41 1.205381,-0.49004 -0.467642,-0.7245 -0.975022,-1.44757 -1.443828,-2.02633 -1.183331,-1.46089 -3.220903,-3.19234 -3.687957,-3.16882 z m 12.005927,5.96119 c -0.0552,0.0439 -0.10659,0.0831 -0.14974,0.11265 -0.13984,0.0958 -0.28984,0.17996 -0.44075,0.2422 -0.0248,1.47626 1.3e-4,2.05877 0.0882,1.97142 0.0804,-0.0797 0.22972,-0.67215 0.33185,-1.31616 0.0343,-0.21635 0.11978,-0.70645 0.17039,-1.01011 z"
       transform="matrix(1.3741476,0,0,1.3741476,-114.90839,-157.00326)" /><path
       id="path9"
       clip-path="url(#clipPath22)"
       style="fill:#ffffff;stroke-width:0.497342"
       d="m 102.70037,107.22634 0.49347,0.8292 c 0.2714,0.45622 0.49347,0.8499 0.49347,0.87487 0,0.025 0.44723,0.80113 0.99399,1.72478 0.87506,1.47824 0.9782,1.72011 0.8631,2.02001 -0.0719,0.18738 -0.16876,0.60711 -0.21519,0.93278 -0.0464,0.32569 -0.13775,0.76982 -0.20294,0.98694 -0.0652,0.21712 -0.24041,1.07614 -0.3894,1.90841 -0.14898,0.83229 -0.3577,1.98675 -0.46381,2.56575 -0.10612,0.57899 -0.2573,1.43753 -0.33619,1.90795 -0.0789,0.47043 -0.2225,1.2997 -0.31925,1.84249 -0.008,0.0444 -0.0119,0.0675 -0.0198,0.1116 -0.19839,-0.12341 -0.38977,-0.2059 -0.64132,-0.28205 -0.24104,-0.073 -0.51725,-0.11263 -0.78587,-0.12337 0.0791,-2.05638 0.20474,-5.68761 0.44497,-12.79953 z m -7.223544,7.62755 c 0.194299,0.009 0.384206,0.47097 0.842378,1.39894 0.875548,1.77332 1.709712,3.6465 1.709712,3.83944 0,0.0668 0.08317,0.3078 0.185051,0.53585 0.271834,0.60869 0.652798,1.98225 0.983637,3.49099 -0.110894,0.175 -0.205449,0.35908 -0.279223,0.54997 -0.329408,0.85236 -0.260272,1.85278 0.145969,2.79741 0.153979,0.35805 0.462325,0.90465 0.667687,1.17811 0.07981,0.10628 0.222009,0.25964 0.384693,0.42142 0.0331,0.23223 0.0583,0.4382 0.081,0.66157 0.0441,0.43424 0.14248,1.0341 0.21848,1.33302 0.076,0.2989 0.11197,0.65431 0.08,0.78964 -0.0551,0.23352 -0.0634,0.23289 -0.16386,-0.0169 -0.0582,-0.14475 -0.3118,-0.79607 -0.563155,-1.44744 -0.25135,-0.65136 -0.558786,-1.42114 -0.683226,-1.71065 -0.12443,-0.28948 -0.303803,-0.73363 -0.398823,-0.98694 -0.189478,-0.50508 -1.127618,-2.80415 -1.315598,-3.22401 -0.0648,-0.14475 -0.244846,-0.55915 -0.399764,-0.92102 -0.76619,-1.78969 -1.780486,-3.54921 -2.762097,-4.79105 -0.570584,-0.72184 -0.612635,-0.8755 -0.346086,-1.26569 0.09752,-0.14276 0.432393,-0.73332 0.743967,-1.3123 0.476286,-0.88506 0.674918,-1.32923 0.869218,-1.32031 z m 12.484524,1.5176 c 0.0644,0 1.2525,2.10248 1.2525,2.21637 0,0.0642 -0.25972,0.64283 -0.57728,1.28593 -0.70489,1.42748 -1.13213,2.36941 -1.13808,2.51065 -0.002,0.0582 -0.11866,0.34288 -0.2585,0.63238 -0.13984,0.28949 -0.25653,0.59349 -0.25898,0.67569 -0.002,0.0822 -0.0924,0.31912 -0.20059,0.52643 -0.10812,0.2073 -0.19731,0.47703 -0.19776,0.59941 -4.5e-4,0.12238 -0.0607,0.25967 -0.1342,0.30512 -0.0736,0.0454 -0.0987,0.13973 -0.0556,0.20953 0.0431,0.0698 0.20473,-0.0377 0.35927,-0.2392 0.15454,-0.20145 1.06367,-1.26546 2.02001,-2.36468 1.20808,-1.38856 1.77492,-1.95112 1.8571,-1.8425 0.0651,0.086 0.28204,0.4429 0.48216,0.79294 l 0.36398,0.63614 -1.03214,1.07545 c -2.8573,2.97723 -4.25189,4.91461 -5.71536,7.93974 -0.3915,0.80928 -0.7474,1.47547 -0.79105,1.4804 -0.0437,0.005 -0.0557,-0.30186 -0.0264,-0.68182 0.14236,-1.84521 0.37166,-3.60013 0.67898,-5.27793 0.18685,-0.21093 0.28559,-0.33058 0.34939,-0.53631 0.0796,-0.25654 0.0849,-0.67701 0.041,-1.24214 -0.003,-0.0362 -0.006,-0.0652 -0.009,-0.0994 0.30755,-1.3426 0.67192,-2.63001 1.09477,-3.86486 0.57768,-1.68704 0.66122,-1.92079 0.77598,-2.17116 0.0663,-0.14475 0.33864,-0.7812 0.60459,-1.41448 0.26597,-0.63326 0.49777,-1.15174 0.5156,-1.15174 z m -13.313718,6.53703 c 0.05432,-0.0193 0.178186,0.0716 0.450618,0.29617 0.269799,0.2224 0.58059,0.40612 0.69076,0.40824 0.129878,0.002 0.04886,0.1411 -0.229783,0.39459 -0.437121,0.39763 -0.640293,0.46304 -0.899353,0.29005 -0.07964,-0.0531 -0.21119,-0.22334 -0.292878,-0.37858 -0.117154,-0.22265 -0.107847,-0.31662 0.04567,-0.44402 0.107037,-0.0888 0.194938,-0.27697 0.194938,-0.41813 0,-0.0855 0.0074,-0.13676 0.04002,-0.14832 z m -4.176106,0.49252 c 0.467055,-0.0235 2.504958,1.70804 3.688289,3.16893 0.671799,0.82936 1.4264,1.95285 2.021425,2.95562 -0.01306,1.1e-4 -0.02605,-2.4e-4 -0.03908,0 -0.25811,0.007 -0.518086,0.0534 -0.775987,0.13372 -0.218479,0.0681 -0.42121,0.15875 -0.607887,0.26934 -1.758399,-1.52587 -3.703354,-2.8152 -5.086759,-3.30359 -0.46958,-0.16577 -0.85415,-0.35552 -0.85415,-0.42143 0,-0.0659 0.109351,-0.27687 0.242966,-0.46898 0.133615,-0.19211 0.466137,-0.76377 0.738788,-1.27039 0.272653,-0.50662 0.543038,-0.97212 0.600825,-1.0345 0.01646,-0.0178 0.04043,-0.0272 0.07157,-0.0287 z m 12.243914,4.55045 c -0.0697,0.40402 -0.10774,0.64003 -0.16292,0.96668 -0.009,-0.0713 -0.0166,-0.14223 -0.0282,-0.2166 -0.0927,-0.59048 -0.0433,-0.60988 -0.0127,-0.64414 0.0346,-0.0388 0.0408,-0.0504 0.20388,-0.10594 z m -0.33337,1.97622 c -0.0183,0.11219 -0.0598,0.34932 -0.0749,0.44449 -0.10213,0.64401 -0.25154,1.23635 -0.33196,1.31607 -0.08,0.0793 -0.1102,-0.35188 -0.0965,-1.53643 0.1923,-2.9e-4 0.36747,-0.0656 0.50336,-0.22413 z"
       transform="matrix(-1.3698267,0,0,1.3698267,164.09218,-156.84269)" /><path
       style="fill:#d40000;stroke-width:0.6079"
       d="m 20.796754,27.065011 c -0.150553,-0.04106 -0.385281,-0.257994 -0.72191,-0.667291 -0.511158,-0.621496 -0.70345,-0.762263 -1.04064,-0.761901 -0.224893,2.5e-4 -0.349959,0.0528 -0.898899,0.377818 -0.630395,0.373224 -1.31712,0.571569 -1.974987,0.570446 -0.338888,-5.87e-4 -0.443334,-0.01336 -0.566377,-0.06915 -0.231509,-0.105095 -0.542587,-0.369692 -1.031092,-0.877181 -0.725892,-0.754076 -0.791295,-0.91706 -0.765271,-1.907275 0.01822,-0.69138 0.06391,-0.915287 0.28448,-1.392696 0.234305,-0.507139 0.715595,-1.078646 1.173931,-1.393993 0.967398,-0.665581 2.300357,-0.831699 3.393083,-0.422864 0.914614,0.342195 1.699381,1.123642 2.197946,2.188634 0.194213,0.414838 0.431638,1.109726 0.508025,1.486907 0.0699,0.345378 0.10547,1.55588 0.05679,1.938316 -0.08887,0.698907 -0.298835,1.016476 -0.615143,0.930253 z"
       id="path24" /><path
       style="fill:#d40000;stroke-width:0.456697"
       d="m 103.92697,134.1943 c -0.27624,-0.27708 -0.39379,-1.15794 -0.24933,-1.8683 0.15222,-0.74855 0.45941,-1.37916 0.89863,-1.84477 0.72834,-0.77207 1.65119,-1.02748 2.6207,-0.72529 0.75587,0.23559 1.31728,0.7638 1.5898,1.49576 0.0741,0.199 0.0915,0.29462 0.10322,0.56609 0.0179,0.41513 -0.0209,0.61794 -0.18173,0.94884 -0.39809,0.81947 -1.25341,1.29037 -2.05814,1.13313 -0.30616,-0.0598 -0.56788,-0.19262 -0.97191,-0.49318 -0.18291,-0.13605 -0.3484,-0.24765 -0.36778,-0.24799 -0.0194,-3.4e-4 -0.17839,0.16695 -0.35339,0.37175 -0.46476,0.54395 -0.7159,0.75817 -0.88883,0.75817 -0.026,0 -0.0896,-0.0424 -0.14124,-0.0942 z"
       id="path25"
       inkscape:path-effect="#path-effect32"
       inkscape:original-d="m 103.92697,134.1943 c -0.27624,-0.27708 -0.39379,-1.15794 -0.24933,-1.8683 0.15222,-0.74855 0.45941,-1.37916 0.89863,-1.84477 0.72834,-0.77207 1.65119,-1.02748 2.6207,-0.72529 0.75587,0.23559 1.31728,0.7638 1.5898,1.49576 0.0741,0.199 0.0915,0.29462 0.10322,0.56609 0.0179,0.41513 -0.0209,0.61794 -0.18173,0.94884 -0.39809,0.81947 -1.25341,1.29037 -2.05814,1.13313 -0.30616,-0.0598 -0.56788,-0.19262 -0.97191,-0.49318 -0.18291,-0.13605 -0.3484,-0.24765 -0.36778,-0.24799 -0.0194,-3.4e-4 -0.17839,0.16695 -0.35339,0.37175 -0.46476,0.54395 -0.7159,0.75817 -0.88883,0.75817 -0.026,0 -0.0896,-0.0424 -0.14124,-0.0942 z"
       transform="matrix(1.248159,0,0,1.248159,-100.5277,-140.59321)" /><path
       style="fill:#d40000;stroke-width:0.659905"
       d="m 24.247657,20.620092 c -0.07526,-0.151739 -0.06865,-0.498652 0.0206,-1.066976 0.135454,-0.862965 0.110961,-1.12051 -0.13258,-1.39377 -0.162435,-0.182268 -0.295299,-0.2458 -0.954901,-0.456676 -0.757496,-0.242168 -1.413765,-0.656182 -1.887404,-1.190669 -0.243978,-0.275344 -0.308982,-0.369243 -0.35243,-0.509349 -0.08176,-0.263598 -0.09149,-0.706832 -0.0322,-1.469195 0.08812,-1.132804 0.173157,-1.303415 0.995207,-1.996593 0.573966,-0.483986 0.788587,-0.608402 1.334994,-0.773833 0.580406,-0.175741 1.391212,-0.197559 1.977634,-0.05317 1.237762,0.304651 2.334045,1.266145 2.790597,2.447503 0.382149,0.988791 0.314311,2.189108 -0.189983,3.361766 -0.196447,0.456801 -0.588881,1.150641 -0.839761,1.484698 -0.229711,0.305886 -1.186088,1.207856 -1.531391,1.444282 -0.631057,0.432088 -1.040154,0.490814 -1.198374,0.172021 z"
       id="path27" /><path
       style="fill:#1a1a1a;stroke-width:0.0907322"
       d="m 32.510561,12.301209 c -0.01319,-0.483475 -0.0066,-0.625036 0.03194,-0.722538 0.0265,-0.06668 0.09912,-0.244678 0.161515,-0.395491 0.112611,-0.272304 0.1136,-0.273754 0.1411,-0.212589 0.01481,0.03424 0.110976,0.242604 0.212918,0.463851 l 0.185174,0.402258 0.287632,0.316858 c 0.158223,0.174274 0.287946,0.309957 0.288358,0.301527 0.0011,-0.0082 -0.111134,-0.189356 -0.24769,-0.402077 L 33.323155,11.666211 33.18403,11.198145 c -0.0759,-0.257617 -0.135008,-0.471819 -0.129416,-0.47656 0.0049,-0.0049 0.188253,-0.06241 0.407246,-0.127767 l 0.398223,-0.118706 0.451585,-0.387636 0.451602,-0.3876378 0.509359,0.3336838 0.509358,0.333683 0.476692,0.0713 c 0.262196,0.03919 0.484399,0.07458 0.493833,0.0787 0.02388,0.0099 0.125301,0.787393 0.105369,0.805454 -0.0082,0.0066 -0.232559,0.04692 -0.497125,0.0866 l -0.481122,0.07194 -0.231127,0.23949 c -0.270839,0.280652 -0.234962,0.291008 0.06882,0.01992 l 0.206067,-0.183743 0.490358,-0.02223 c 0.269687,-0.01148 0.497488,-0.01481 0.506181,-0.0049 0.0082,0.0099 0.117228,0.251823 0.24122,0.538254 l 0.225298,0.520866 -0.231225,0.519105 -0.231226,0.519122 -0.389366,0.372967 -0.389382,0.372935 -0.514644,-0.0866 -0.514627,-0.0866 -0.568318,0.15246 c -0.42045,0.112782 -0.57263,0.14324 -0.584583,0.117887 -0.0082,-0.0191 -0.13402,-0.238617 -0.277918,-0.488201 L 33.42346,13.528156 33.007339,13.235535 c -0.22887,-0.161021 -0.430412,-0.301546 -0.447848,-0.312444 -0.0186,-0.01148 -0.03853,-0.267579 -0.04791,-0.621103 z"
       id="path1-6" /><path
       style="fill:#1a1a1a;stroke-width:0.122605"
       d="m 25.22701,8.8830395 c -0.653358,0.01764 -0.844589,0.0099 -0.976377,-0.04317 -0.09014,-0.03575 -0.33063,-0.133982 -0.534392,-0.218242 -0.367954,-0.152109 -0.369924,-0.153428 -0.287286,-0.190605 0.04578,-0.02077 0.327821,-0.150132 0.626837,-0.2875729 l 0.543569,-0.2502332 0.428161,-0.3886579 c 0.235496,-0.213743 0.41885,-0.3891207 0.407462,-0.3896647 -0.01149,-1.967e-4 -0.255881,0.1501317 -0.543354,0.3346388 l -0.522639,0.335594 -0.63269,0.1872592 c -0.347849,0.1034872 -0.63747,0.1827606 -0.644119,0.1743065 -0.0053,-0.0066 -0.08355,-0.2545295 -0.172372,-0.5503421 L 22.757994,7.0586651 22.234204,6.4484194 21.710379,5.8381895 22.16129,5.1498954 22.612181,4.4616011 22.708473,3.8174397 c 0.05298,-0.3542987 0.10078,-0.6545768 0.106246,-0.6672992 0.01384,-0.03197 1.063972,-0.1693461 1.088385,-0.1425499 0.01188,0.01319 0.0634,0.3142857 0.116889,0.6718638 l 0.0974,0.6500942 0.323629,0.3122917 c 0.379266,0.3659994 0.393224,0.3175489 0.0267,-0.093111 L 24.219383,4.2703191 24.189226,3.6077002 c -0.01665,-0.3644172 -0.01961,-0.6722429 -0.0066,-0.6840095 0.0132,-0.01154 0.340275,-0.1583707 0.727352,-0.32597 l 0.703784,-0.3045298 0.701479,0.3124566 0.701478,0.3124565 0.503951,0.5261498 0.503969,0.5261663 -0.117166,0.6954135 -0.117166,0.6954131 0.205963,0.7680075 c 0.152274,0.5681233 0.193671,0.7737417 0.159525,0.7899091 -0.02604,0.0099 -0.322475,0.181096 -0.659701,0.3756065 l -0.613131,0.3537373 -0.395448,0.5622897 c -0.217467,0.3092597 -0.407446,0.5815877 -0.422196,0.6051877 -0.01483,0.02522 -0.361566,0.05207 -0.839248,0.06476 z"
       id="path1-6-6" /><path
       style="fill:#1a1a1a;stroke-width:0.102377"
       d="m 17.599507,13.231704 c -0.126979,0.53078 -0.175085,0.683185 -0.245777,0.778186 -0.0484,0.06501 -0.179541,0.237695 -0.291521,0.383839 -0.202188,0.263905 -0.203674,0.265215 -0.215828,0.190513 -0.0064,-0.04137 -0.05015,-0.296838 -0.09647,-0.567723 l -0.08433,-0.492496 -0.22094,-0.429327 C 16.3231,12.858551 16.221305,12.67278 16.218397,12.681837 c -0.0032,0.0096 0.0658,0.238829 0.152534,0.510576 l 0.157803,0.494061 0.01437,0.550761 c 0.0079,0.302925 0.0096,0.553653 0.0015,0.557199 -0.0064,0.0032 -0.223384,0.0128 -0.48114,0.02013 l -0.46865,0.01437 -0.605401,0.290594 -0.605386,0.290594 -0.457709,-0.512428 -0.457692,-0.512429 -0.498741,-0.216867 c -0.274303,-0.119314 -0.506168,-0.222746 -0.51524,-0.229917 -0.02284,-0.01804 0.09344,-0.894734 0.120427,-0.90863 0.0128,-0.0064 0.267195,0.01678 0.567149,0.05079 l 0.545395,0.06197 0.321819,-0.193516 c 0.377178,-0.226803 0.341082,-0.24854 -0.06932,-0.04169 l -0.278231,0.140075 -0.540955,-0.118828 c -0.29751,-0.06533 -0.546418,-0.129533 -0.553109,-0.14247 -0.0064,-0.0128 -0.05414,-0.308691 -0.10557,-0.657088 l -0.09344,-0.633464 0.403612,-0.498245 0.403596,-0.498247 0.533304,-0.292782 0.533288,-0.2927495 0.535588,0.2447385 0.535588,0.244755 0.663923,-1.45e-4 c 0.491155,-1.28e-4 0.665905,0.01113 0.671558,0.04216 0.0032,0.02332 0.07634,0.299219 0.16039,0.613243 l 0.152693,0.570983 0.368075,0.440458 c 0.202428,0.242248 0.381026,0.45434 0.396871,0.471318 0.01693,0.01821 -0.03625,0.302861 -0.129054,0.690932 z"
       id="path1-6-3" /><path
       style="fill:#1a1a1a;stroke-width:0.0432697"
       d="m 15.721076,29.231491 c -0.05367,0.224331 -0.07402,0.288749 -0.103847,0.328902 -0.02047,0.02746 -0.07589,0.100477 -0.123193,0.162236 -0.0855,0.111585 -0.08612,0.112084 -0.09124,0.08051 -0.0025,-0.01747 -0.02122,-0.125465 -0.04081,-0.239946 l -0.03557,-0.208168 -0.09336,-0.181457 c -0.05143,-0.09985 -0.09436,-0.178325 -0.09561,-0.174481 -0.0012,0.0037 0.02783,0.100976 0.0644,0.215782 l 0.06665,0.208817 0.0062,0.232782 c 0.0037,0.128036 0.0037,0.234005 10e-4,0.235502 -0.0025,0.0012 -0.09449,0.005 -0.203362,0.0087 l -0.198083,0.0062 -0.25586,0.122819 -0.255873,0.122819 -0.193452,-0.21658 -0.193452,-0.216581 -0.210789,-0.09161 c -0.115954,-0.05043 -0.213935,-0.09411 -0.217767,-0.09711 -0.01,-0.0075 0.03944,-0.378167 0.05092,-0.384033 0.005,-0.0025 0.112959,0.0075 0.239709,0.02147 l 0.23051,0.02621 0.136024,-0.08175 c 0.159403,-0.09586 0.144163,-0.105095 -0.02933,-0.0176 l -0.117577,0.05916 -0.228638,-0.05018 c -0.125752,-0.02759 -0.230947,-0.05467 -0.23378,-0.06016 -0.0025,-0.005 -0.02284,-0.13047 -0.04468,-0.277727 l -0.03957,-0.267731 0.170586,-0.210589 0.170586,-0.210589 0.225393,-0.123693 0.225405,-0.123692 0.226366,0.103472 0.226366,0.103472 0.280611,-7.5e-5 c 0.207594,-4.9e-5 0.281448,0.005 0.283832,0.01785 0.0012,0.01 0.03233,0.126464 0.06777,0.259193 l 0.06453,0.241331 0.155558,0.186151 c 0.08562,0.102349 0.16105,0.192042 0.167753,0.199206 0.0075,0.0075 -0.01535,0.128011 -0.05455,0.292019 z"
       id="path1-6-2" /><path
       style="fill:#1a1a1a;stroke-width:0.0247633"
       d="m 12.364365,34.176035 c -0.0307,0.128386 -0.04231,0.165244 -0.05941,0.188223 -0.01123,0.01573 -0.04344,0.05741 -0.07052,0.09286 -0.04893,0.06378 -0.0493,0.06415 -0.05217,0.04606 -0.0012,-0.01 -0.01248,-0.07177 -0.02334,-0.13731 l -0.02035,-0.119075 -0.05342,-0.103846 c -0.02946,-0.05717 -0.05405,-0.1021 -0.05467,-0.09985 -7.61e-4,0.0025 0.01598,0.05779 0.03694,0.123443 l 0.03819,0.119573 0.0037,0.133229 c 0.0012,0.07327 0.0025,0.133915 5.74e-4,0.134776 -0.0012,8.61e-4 -0.05405,0.0037 -0.116329,0.005 l -0.113333,0.0037 -0.146446,0.07027 -0.146434,0.07027 -0.110712,-0.123942 -0.110711,-0.123943 -0.120573,-0.05242 c -0.0664,-0.02883 -0.122444,-0.05392 -0.124691,-0.05567 -0.005,-0.0037 0.02259,-0.216418 0.02908,-0.219788 0.0025,-0.0012 0.06466,0.0037 0.137186,0.01248 l 0.131917,0.01498 0.07789,-0.04681 c 0.09124,-0.05479 0.0825,-0.06016 -0.01673,-0.01 l -0.06728,0.03383 -0.130844,-0.02871 c -0.07202,-0.01585 -0.132168,-0.03133 -0.13379,-0.03445 -0.0012,-0.0037 -0.01311,-0.07464 -0.02559,-0.15894 l -0.02259,-0.153224 0.09761,-0.120573 0.09761,-0.120572 0.128985,-0.07077 0.128997,-0.07077 0.129546,0.05916 0.129559,0.05916 0.160588,-3.7e-5 c 0.118825,-3.7e-5 0.161075,0.0025 0.162436,0.01 8.73e-4,0.005 0.01847,0.07239 0.03882,0.148344 l 0.03695,0.138109 0.08899,0.106593 c 0.04893,0.05866 0.09211,0.109962 0.09598,0.113956 0.0037,0.0037 -0.0087,0.07327 -0.0312,0.167129 z"
       id="path1-6-8" /><path
       style="fill:#1a1a1a;stroke-width:0.02319"
       d="m 38.249159,32.652582 c -0.02871,0.120198 -0.03969,0.154759 -0.05567,0.176278 -0.01123,0.01473 -0.04069,0.0538 -0.06603,0.087 -0.04581,0.05979 -0.04618,0.06004 -0.04893,0.04319 -0.0012,-0.0087 -0.01123,-0.06728 -0.02184,-0.128598 l -0.0191,-0.111586 -0.05005,-0.09723 c -0.02746,-0.05355 -0.05055,-0.09561 -0.05117,-0.09349 -5.87e-4,0.0025 0.01485,0.05404 0.03457,0.115704 l 0.0357,0.11196 0.0037,0.124816 c 0.0012,0.06865 0.0025,0.125415 5.37e-4,0.126214 -0.0012,0.0012 -0.05067,0.0025 -0.108964,0.005 l -0.106218,0.0025 -0.137123,0.06578 -0.137135,0.06578 -0.103722,-0.116079 -0.103722,-0.116079 -0.112959,-0.04918 c -0.06216,-0.02708 -0.114706,-0.05043 -0.116703,-0.05205 -0.005,-0.0037 0.02109,-0.202676 0.02733,-0.205821 0.0025,-0.0012 0.06054,0.0037 0.128473,0.01123 l 0.123568,0.01411 0.07289,-0.04381 c 0.08537,-0.05142 0.07726,-0.05629 -0.01573,-0.01 l -0.06303,0.0317 -0.122569,-0.02696 c -0.0674,-0.01485 -0.123817,-0.02933 -0.12529,-0.03233 -0.0012,-0.0025 -0.01248,-0.0699 -0.02397,-0.148843 l -0.02122,-0.143489 0.09149,-0.112833 0.09149,-0.112834 0.120821,-0.06628 0.120822,-0.06628 0.121321,0.05542 0.121321,0.05542 0.150391,-3.7e-5 c 0.111211,-2.5e-5 0.15084,0.0025 0.152113,0.01 0.0012,0.005 0.01735,0.06777 0.03632,0.138908 l 0.03457,0.129334 0.08338,0.09973 c 0.04581,0.05492 0.08637,0.102848 0.08987,0.106717 0.0037,0.0037 -0.0087,0.06865 -0.02921,0.156507 z"
       id="path1-6-4" /><path
       style="fill:#1a1a1a;stroke-width:0.0365451"
       d="m 36.086861,28.486864 c -0.04531,0.18947 -0.06253,0.243865 -0.08775,0.277778 -0.01722,0.02322 -0.06403,0.08488 -0.104096,0.137023 -0.07214,0.09424 -0.07277,0.09461 -0.07701,0.06802 -0.0025,-0.01473 -0.01785,-0.105968 -0.03445,-0.202663 l -0.03008,-0.175804 -0.07888,-0.153261 c -0.04344,-0.08425 -0.07976,-0.150603 -0.08076,-0.14737 -0.0011,0.0037 0.02347,0.08525 0.05442,0.182256 l 0.05629,0.176365 0.005,0.196597 c 0.0025,0.108091 0.0037,0.197646 8.36e-4,0.198907 -0.0025,0.0012 -0.07976,0.005 -0.171747,0.0075 l -0.167291,0.005 -0.216106,0.103722 -0.216106,0.103722 -0.163384,-0.182918 -0.163384,-0.182918 -0.178038,-0.07739 c -0.09798,-0.04256 -0.180683,-0.07951 -0.183928,-0.082 -0.0087,-0.0062 0.03333,-0.319391 0.04294,-0.324346 0.0037,-0.0025 0.09536,0.0062 0.202464,0.0181 l 0.194688,0.02209 0.114831,-0.06915 c 0.134626,-0.08101 0.121695,-0.08874 -0.02471,-0.01485 l -0.09935,0.05005 -0.193103,-0.04244 c -0.106218,-0.02334 -0.19505,-0.04618 -0.197446,-0.0508 -0.0025,-0.005 -0.01935,-0.110212 -0.03769,-0.234566 l -0.03332,-0.226129 0.144075,-0.177851 0.144075,-0.177862 0.190369,-0.104471 0.190369,-0.104471 0.19118,0.08737 0.191193,0.08737 0.237001,-5e-5 c 0.175329,-3.7e-5 0.237712,0.0037 0.239721,0.0151 0.0012,0.0087 0.02734,0.106842 0.05729,0.218915 l 0.05454,0.203824 0.131382,0.157231 c 0.07227,0.0865 0.136024,0.162173 0.141678,0.168239 0.0062,0.0062 -0.01298,0.108091 -0.04606,0.246636 z"
       id="path1-6-7" /><path
       style="fill:#ffffff;stroke-width:1.97148"
       d="M 84.700983,37.368465 V 18.329379 h 2.276951 c 1.485876,0 2.736976,0.361857 3.601072,1.041522 l 1.324122,1.041578 2.267166,-1.296088 c 3.949205,-2.257645 8.556246,-1.457278 11.468386,1.99243 2.37836,2.817391 3.30634,11.184383 1.7968,16.200243 -1.85157,6.152232 -7.00946,9.290337 -12.623522,7.680244 l -1.618613,-0.464203 -0.299604,5.021768 c -0.36335,6.090181 -0.967717,6.860655 -5.381631,6.860655 h -2.811127 z m 13.820259,0.785399 c 0.665421,-0.735295 1.014301,-2.1758 1.189993,-4.913514 0.325135,-5.066285 -0.144129,-7.413435 -1.683907,-8.422332 -1.099765,-0.720584 -1.429235,-0.722987 -3.105346,-0.02276 L 93.04692,25.578704 V 32.0873 c 0,5.760054 0.104968,6.536031 0.91283,6.747134 2.072335,0.541553 3.67131,0.302949 4.561492,-0.68067 z M 113.39014,37.431145 V 18.329379 h 2.27695 c 1.51285,0 2.73765,0.36237 3.64979,1.079855 l 1.37283,1.079887 1.63307,-1.162854 c 1.97892,-1.409118 6.08884,-1.904848 8.2772,-0.998406 4.19957,1.739512 6.57377,7.289659 6.13395,14.339283 -0.48633,7.795442 -4.26417,12.525576 -10.00388,12.525576 -1.45567,0 -3.29218,-0.180592 -4.08114,-0.401162 l -1.43447,-0.40115 v 4.86562 c 0,6.193158 -0.35678,6.73673 -4.62449,7.045436 l -3.19981,0.231445 z m 13.89974,0.414941 c 1.25314,-1.912507 1.59623,-8.756391 0.56296,-11.229349 -0.94423,-2.259825 -2.34803,-2.736443 -4.65957,-1.581953 l -1.71802,0.858047 -0.14865,5.992269 c -0.1664,6.707584 0.11062,7.309006 3.36606,7.309006 1.26751,0 1.94399,-0.35111 2.59721,-1.34802 z m -67.526365,6.733396 c -2.474118,-1.219252 -3.927026,-4.307199 -3.64226,-7.741095 0.428827,-5.17109 4.234271,-8.076651 10.578117,-8.076651 3.19992,0 3.396223,-0.06966 3.396223,-1.204349 0,-3.042819 -2.691745,-3.803392 -8.515971,-2.406175 -2.343828,0.562256 -2.676949,0.529959 -3.298398,-0.319936 -0.758987,-1.037977 -1.508654,-4.306804 -1.084894,-4.730561 0.146582,-0.146651 2.580723,-0.743776 5.409229,-1.327143 7.723776,-1.592978 11.788203,-0.798198 14.360382,2.808053 1.120353,1.570725 1.235048,2.363507 1.475591,10.198927 0.194242,6.327992 0.43973,8.606257 0.962017,8.928703 0.580928,0.358599 0.564458,0.697347 -0.09604,1.974525 -1.285897,2.486665 -2.146555,2.970931 -4.081378,2.296436 -0.919755,-0.320641 -2.068389,-0.94143 -2.552507,-1.379555 -0.794766,-0.719239 -1.12213,-0.667958 -3.371696,0.528143 -2.945748,1.566238 -6.896022,1.752918 -9.538446,0.450678 z m 9.172774,-5.675762 c 0.85484,-0.598771 1.159306,-1.336662 1.159306,-2.80972 0,-1.824359 -0.136837,-2.017739 -1.577316,-2.229152 -3.33128,-0.488946 -5.87486,2.625153 -3.913999,4.79184 1.145394,1.265639 2.747306,1.356983 4.332009,0.247032 z m 75.154761,6.181557 -1.37876,-0.211916 -0.20694,-9.751069 c -0.17385,-8.191196 -0.36001,-10.038215 -1.16387,-11.546014 -0.92025,-1.726147 -0.9213,-1.861068 -0.0273,-3.520913 0.68556,-1.273011 1.28442,-1.725078 2.28182,-1.722547 1.55817,0.0042 3.9265,1.430089 5.0583,3.045941 0.77535,1.106959 0.7904,1.10167 2.7594,-0.968172 1.85605,-1.951085 2.1653,-2.08122 4.94592,-2.08122 1.93556,0 3.05545,0.233016 3.22339,0.670639 0.14156,0.368876 -0.17309,2.070655 -0.69936,3.781747 l -0.95672,3.111078 -2.11368,-0.157517 c -1.66549,-0.124236 -2.46082,0.13459 -3.75078,1.220022 l -1.63712,1.377526 v 8.23126 8.231282 l -1.95608,0.323301 c -1.07584,0.177813 -2.19081,0.290737 -2.47771,0.25091 -0.28688,-0.03985 -1.14206,-0.167762 -1.90039,-0.284338 z m 23.28686,-0.471543 c -4.38155,-2.385344 -6.09857,-5.530308 -6.41375,-11.747665 -0.37416,-7.381738 1.61966,-11.626558 6.51344,-13.866992 5.51576,-2.52519 12.14099,-0.823626 15.2872,3.926273 1.78708,2.69797 2.3098,5.552294 1.97428,10.780401 -0.2976,4.63708 -2.01037,7.937136 -5.22347,10.064209 -1.82695,1.209423 -2.78072,1.443208 -6.36102,1.559229 -3.1146,0.10085 -4.61946,-0.08546 -5.77668,-0.715455 z m 7.53442,-5.912165 c 1.31707,-1.317058 1.75463,-3.799845 1.51297,-8.585275 -0.14465,-2.866342 -0.45121,-4.152975 -1.18132,-4.95973 -1.4108,-1.55893 -3.62761,-1.407932 -5.00315,0.340756 -1.01858,1.294902 -1.10846,1.940627 -0.95069,6.828042 0.15928,4.93552 0.27976,5.483225 1.40571,6.394123 1.5701,1.270213 2.93414,1.264421 4.21648,-0.01773 z m 20.37231,6.168565 c -1.89161,-0.750336 -4.65334,-3.566551 -5.56616,-5.676028 -1.27068,-2.936446 -1.52108,-9.863447 -0.47246,-13.069393 1.21749,-3.72223 2.65982,-5.491441 5.72011,-7.016452 3.503,-1.745579 7.06853,-1.742193 10.51812,0.0086 3.31217,1.682525 4.53998,3.413886 4.8206,6.797816 0.19715,2.377513 0.0771,2.807178 -0.99379,3.557269 -0.71492,0.500751 -2.24736,0.853143 -3.71007,0.853143 h -2.49201 v -2.110241 c 0,-4.138711 -3.86893,-5.886662 -5.59978,-2.529931 -0.80297,1.557284 -0.85716,8.612528 -0.0832,10.832696 0.31709,0.90954 1.00583,1.883492 1.53058,2.164326 1.53774,0.822962 4.29747,0.590577 6.51979,-0.549009 l 2.0664,-1.059632 1.13716,1.41369 c 1.91607,2.381935 1.86056,3.213562 -0.31028,4.650169 -1.07551,0.711737 -2.75626,1.523706 -3.73503,1.804434 -2.2548,0.646665 -7.64167,0.604604 -9.34997,-0.07297 z m 21.25607,0.20978 -1.43448,-0.217301 V 25.581014 c 0,-21.5874976 -0.28459,-20.1662654 3.91234,-19.5368859 3.88728,0.582907 3.91198,0.6555859 3.91198,11.5092729 0,6.093355 0.19823,9.704414 0.54447,9.918402 0.84162,0.520164 1.92535,-0.651879 3.72509,-4.028512 2.26588,-4.25124 3.49341,-5.113912 7.27644,-5.113912 1.74152,0 3.0594,0.230301 3.0594,0.534617 0,0.990425 -3.5708,7.635524 -5.04345,9.385644 -1.11793,1.328552 -1.2855,1.792992 -0.71551,1.982974 1.50332,0.501104 3.03025,2.583574 4.1087,5.603618 0.60826,1.70338 1.58908,4.028512 2.17955,5.166944 l 1.07359,2.069896 -1.19266,0.918076 c -0.65598,0.504939 -2.00065,1.075112 -2.98816,1.267061 -2.95075,0.573591 -4.21735,-0.545002 -6.0169,-5.313788 -2.02406,-5.363712 -2.08691,-5.444894 -4.21568,-5.444894 h -1.79488 v 5.150994 5.150973 l -1.63007,0.326004 c -1.67284,0.334593 -2.2769,0.328535 -4.75977,-0.04754 z"
       id="path5-1" /><text
       xml:space="preserve"
       style="font-style:normal;font-variant:normal;font-weight:600;font-stretch:normal;font-size:8.00166px;font-family:FreeSans;-inkscape-font-specification:'FreeSans, Semi-Bold';font-variant-ligatures:normal;font-variant-caps:normal;font-variant-numeric:normal;font-variant-east-asian:normal;fill:#ffffff;stroke:#44141e;stroke-width:1.45971;stroke-opacity:0"
       x="57.576416"
       y="66.504265"
       id="text17-7"><tspan
         sodipodi:role="line"
         id="tspan17-7"
         style="font-style:normal;font-variant:normal;font-weight:600;font-stretch:normal;font-size:8.00166px;font-family:FreeSans;-inkscape-font-specification:'FreeSans, Semi-Bold';font-variant-ligatures:normal;font-variant-caps:normal;font-variant-numeric:normal;font-variant-east-asian:normal;stroke-width:1.45971;fill:#ffffff"
         x="57.576416"
         y="66.504265">FOR WEB APPS THAT DON'T FIT IN A BOTTLE</tspan></text></g></svg>
